# xmcd
#
# Track frame offsets:
#	150
#	14675
#	31403
#	43623
#	56880
#	68470
#
# Disc length: 1129 seconds
#
# Revision: 0
# Processed by: cddbd v1.5.2PL0 Copyright (c) Steve Scherf et al.
# Submitted via: audiograbber 1.83.01
#
DISCID=4c046706
DTITLE=April Kline - Lilacs
DYEAR=1994
DGENRE=Folk
TTITLE0=Lilacs
TTITLE1=I Am Falling
TTITLE2=Dominic
TTITLE3=How Long
TTITLE4=Wild Rose
TTITLE5=Love's A Fragile Thing
EXTD=
EXTT0=
EXTT1=
EXTT2=
EXTT3=
EXTT4=
EXTT5=
PLAYORDER=
